<svg width="18" height="18" viewBox="0 0 18 18" fill="none" xmlns="http://www.w3.org/2000/svg">
<path d="M8.62485 1.81952L2.95383 2.95372L1.81962 8.62474C1.80146 8.71554 1.806 8.80943 1.83284 8.89806C1.85967 8.98669 1.90797 9.06732 1.97345 9.1328L9.31779 16.4771C9.37002 16.5294 9.43203 16.5708 9.50028 16.5991C9.56852 16.6273 9.64167 16.6419 9.71554 16.6419C9.7894 16.6419 9.86255 16.6273 9.9308 16.5991C9.99904 16.5708 10.0611 16.5294 10.1133 16.4771L16.4772 10.1132C16.5295 10.0609 16.5709 9.99894 16.5992 9.93069C16.6274 9.86244 16.642 9.7893 16.642 9.71543C16.642 9.64156 16.6274 9.56842 16.5992 9.50017C16.5709 9.43192 16.5295 9.36992 16.4772 9.31768L9.13291 1.97335C9.06743 1.90787 8.98679 1.85956 8.89817 1.83273C8.80954 1.80589 8.71565 1.80136 8.62485 1.81952Z" fill="#039855"/>
<path d="M5.90625 6.96875C6.49305 6.96875 6.96875 6.49305 6.96875 5.90625C6.96875 5.31945 6.49305 4.84375 5.90625 4.84375C5.31945 4.84375 4.84375 5.31945 4.84375 5.90625C4.84375 6.49305 5.31945 6.96875 5.90625 6.96875Z" fill="white" stroke="white"/>
</svg>
