<svg width="111" height="21" viewBox="0 0 111 21" fill="none" xmlns="http://www.w3.org/2000/svg">
<g clip-path="url(#clip0_2175_3483)">
<path d="M65.2161 8.9026V17.1095C65.226 17.1997 65.2145 17.2911 65.1825 17.3761C65.1505 17.4611 65.0988 17.5374 65.0318 17.5987C64.887 17.697 64.7138 17.7449 64.539 17.7351C64.3665 17.7459 64.1953 17.6978 64.0536 17.5987C63.9897 17.5355 63.941 17.4587 63.9112 17.374C63.8813 17.2892 63.8711 17.1987 63.8814 17.1095V7.21937C63.8687 7.10042 63.8841 6.98023 63.9261 6.86826C63.9682 6.75629 64.0359 6.65568 64.1237 6.5745C64.321 6.45928 64.5442 6.39582 64.7726 6.39018C65.0009 6.38454 65.227 6.43688 65.4297 6.54223C65.5794 6.66285 65.6931 6.82216 65.7586 7.00288L69.419 15.9633L73.0793 7.00288C73.144 6.82387 73.2545 6.66501 73.3999 6.54223C73.5956 6.43708 73.8153 6.38475 74.0374 6.3904C74.2595 6.39606 74.4763 6.45953 74.6664 6.5745C74.7497 6.65842 74.8132 6.75985 74.8523 6.87141C74.8915 6.98296 74.9054 7.10179 74.8929 7.21937V17.1095C74.9032 17.1987 74.893 17.2892 74.8631 17.374C74.8333 17.4587 74.7846 17.5355 74.7207 17.5987C74.5793 17.6976 74.4085 17.7458 74.2362 17.7351C74.0614 17.745 73.8882 17.697 73.7434 17.5987C73.6764 17.5374 73.6248 17.4611 73.5928 17.3761C73.5608 17.2911 73.5493 17.1997 73.5592 17.1095V8.88876L70.1806 17.0635C70.1187 17.2124 70.0221 17.3444 69.8989 17.4485C69.7469 17.5529 69.5669 17.6088 69.3826 17.6088C69.1982 17.6088 69.0182 17.5529 68.8662 17.4485C68.743 17.3444 68.6464 17.2124 68.5845 17.0635L65.2161 8.9026ZM84.706 7.04336C84.696 6.94946 84.7073 6.85457 84.7392 6.76569C84.7711 6.67681 84.8228 6.59624 84.8903 6.53019C85.0383 6.42531 85.2177 6.37428 85.3988 6.38557C85.582 6.37536 85.7633 6.42621 85.9145 6.53019C85.9828 6.59561 86.0351 6.67608 86.0671 6.76513C86.099 6.85418 86.1099 6.9494 86.0988 7.04336V13.5671C86.1059 14.1639 86.0106 14.7576 85.8169 15.3222C85.6417 15.8307 85.359 16.2955 84.9879 16.6848C84.6044 17.0767 84.1401 17.3804 83.6274 17.5747C83.0274 17.7986 82.3906 17.9074 81.7503 17.8953C81.1127 17.9078 80.4785 17.799 79.8815 17.5747C79.3717 17.3788 78.9102 17.0753 78.5285 16.6848C78.1574 16.2955 77.8746 15.8307 77.6995 15.3222C77.5058 14.7576 77.4104 14.1639 77.4176 13.5671V7.04617C77.4065 6.95221 77.4173 6.85699 77.4493 6.76794C77.4813 6.67889 77.5334 6.59843 77.6018 6.53301C77.7529 6.42902 77.9344 6.37817 78.1176 6.38838C78.2986 6.37702 78.4781 6.42805 78.626 6.53301C78.6935 6.59905 78.7451 6.67951 78.777 6.76839C78.809 6.85727 78.8203 6.95227 78.8102 7.04617V13.4584C78.7766 13.8894 78.8284 14.323 78.9626 14.734C79.0968 15.1451 79.3107 15.5257 79.5922 15.8538C80.1994 16.3663 80.9683 16.6473 81.7628 16.6473C82.5573 16.6473 83.3261 16.3663 83.9333 15.8538C84.4972 15.1888 84.7756 14.3277 84.7079 13.4584L84.706 7.04336ZM93.3559 11.5955C94.1107 11.7846 94.8 12.1754 95.35 12.726C95.7963 13.2686 96.0224 13.9591 95.9837 14.6607C95.9973 15.164 95.893 15.6634 95.6789 16.1191C95.4865 16.5132 95.2086 16.8594 94.8656 17.1325C94.5175 17.4041 94.1184 17.6031 93.6921 17.7175C93.2463 17.8408 92.7859 17.9027 92.3234 17.9018C91.5624 17.9051 90.8053 17.7917 90.0787 17.5655C89.3793 17.3502 88.7502 16.9517 88.2568 16.4112C88.1485 16.3056 88.0657 16.1767 88.0146 16.0343C87.9903 15.9441 87.9773 15.8514 87.9759 15.758C87.9791 15.6687 88.0018 15.5811 88.0424 15.5016C88.0829 15.422 88.1404 15.3524 88.2108 15.2973C88.3405 15.1697 88.5134 15.0953 88.6953 15.0891C88.7854 15.0972 88.8718 15.1289 88.9458 15.1812C89.0183 15.2342 89.0864 15.2931 89.1494 15.3572C89.56 15.8177 90.0673 16.1816 90.635 16.4231C91.1661 16.6158 91.7281 16.7096 92.293 16.6995C92.8797 16.7236 93.4585 16.5578 93.9436 16.2268C94.157 16.0679 94.3277 15.8584 94.4402 15.6172C94.5527 15.376 94.6036 15.1106 94.5883 14.8449C94.6006 14.6129 94.5652 14.3808 94.4844 14.1629C94.4036 13.9451 94.2791 13.746 94.1185 13.5781C93.6719 13.1973 93.1413 12.928 92.5703 12.7923L91.2089 12.3915C90.4052 12.2022 89.6608 11.8167 89.0425 11.2694C88.796 11.0064 88.6058 10.696 88.4833 10.357C88.3609 10.018 88.309 9.65757 88.3305 9.29779C88.3167 8.81532 88.4328 8.338 88.6667 7.91585C88.8852 7.53756 89.1842 7.21209 89.5426 6.96239C89.904 6.71061 90.3063 6.52348 90.7317 6.40952C91.1518 6.29355 91.5855 6.23405 92.0213 6.23262C92.7138 6.22737 93.4013 6.3524 94.0477 6.60116C94.6845 6.8511 95.2395 7.27271 95.6513 7.81913C95.7216 7.91289 95.7795 8.01545 95.8235 8.12413C95.8542 8.20604 95.8702 8.29272 95.8705 8.38021C95.8725 8.46549 95.8552 8.55006 95.8199 8.62774C95.7847 8.70542 95.7323 8.77426 95.6669 8.82893C95.5479 8.93974 95.392 9.00237 95.2294 9.00483C95.1285 9.00568 95.029 8.98095 94.9402 8.93296C94.8272 8.86508 94.7245 8.78129 94.6353 8.68419C94.3026 8.28561 93.8928 7.95849 93.4305 7.72241C92.9832 7.52162 92.4967 7.42312 92.0065 7.43406C91.7212 7.4333 91.4371 7.47106 91.1619 7.54641C90.9019 7.61597 90.6557 7.72971 90.4342 7.88267C90.2213 8.03114 90.0448 8.22581 89.9176 8.45207C89.784 8.69477 89.7167 8.9683 89.7223 9.24527C89.7198 9.43302 89.7487 9.61995 89.8079 9.79814C89.8724 9.97503 89.9738 10.1361 90.1055 10.2707C90.276 10.442 90.4744 10.5831 90.6921 10.6881C90.9943 10.8367 91.3082 10.96 91.6308 11.0566L93.3559 11.5955ZM98.0645 7.04336C98.0544 6.94946 98.0657 6.85457 98.0976 6.76569C98.1296 6.67681 98.1812 6.59624 98.2486 6.53019C98.401 6.43648 98.5764 6.38692 98.7553 6.38692C98.9342 6.38692 99.1094 6.43648 99.2618 6.53019C99.3292 6.59628 99.3809 6.67682 99.4128 6.76569C99.4447 6.85456 99.4561 6.94947 99.4461 7.04336V17.0772C99.4561 17.1711 99.4447 17.2661 99.4128 17.355C99.3809 17.4438 99.3292 17.5243 99.2618 17.5903C99.1094 17.6839 98.9341 17.7334 98.7553 17.7334C98.5765 17.7334 98.4011 17.6839 98.2486 17.5903C98.1812 17.5243 98.1297 17.4438 98.0978 17.355C98.0659 17.2661 98.0545 17.1711 98.0645 17.0772V7.04336ZM109.67 14.6902C109.741 14.5505 109.835 14.4232 109.946 14.3133C110.039 14.2318 110.159 14.189 110.283 14.1936C110.447 14.1984 110.607 14.2422 110.751 14.3216C110.836 14.3681 110.905 14.4386 110.949 14.5242C110.994 14.6097 111.012 14.7066 111.002 14.8025C110.985 15.0726 110.902 15.3343 110.76 15.5644C110.61 15.8399 110.435 16.1003 110.236 16.342C110.163 16.4274 110.035 16.5582 109.852 16.7345C109.635 16.9365 109.393 17.1114 109.133 17.2551C108.798 17.4421 108.444 17.5925 108.077 17.7037C107.621 17.839 107.146 17.9039 106.67 17.8962C105.947 17.9061 105.231 17.7639 104.566 17.4789C103.948 17.2105 103.396 16.8113 102.947 16.3088C102.481 15.7757 102.127 15.154 101.907 14.481C101.417 12.9129 101.417 11.2326 101.907 9.66453C102.128 8.98714 102.481 8.36067 102.947 7.82194C103.394 7.31528 103.947 6.91297 104.566 6.64356C105.231 6.35875 105.947 6.21657 106.67 6.22621C107.13 6.21957 107.588 6.27916 108.03 6.40311C108.382 6.5032 108.721 6.64029 109.044 6.81214C109.292 6.94369 109.523 7.10518 109.732 7.29303C109.909 7.45886 110.04 7.58971 110.123 7.68552C110.324 7.92933 110.505 8.18941 110.663 8.46309C110.813 8.69014 110.902 8.95241 110.921 9.22413C110.931 9.32089 110.912 9.41843 110.866 9.50416C110.82 9.58989 110.749 9.65984 110.663 9.70502C110.516 9.78386 110.353 9.82772 110.186 9.83311C110.063 9.83737 109.942 9.79419 109.85 9.71244C109.75 9.61805 109.668 9.50698 109.607 9.38439C109.484 9.15857 109.342 8.94297 109.185 8.73953C109.013 8.51519 108.813 8.3134 108.591 8.13886C108.344 7.94795 108.07 7.79653 107.777 7.69014C107.427 7.56417 107.058 7.5021 106.686 7.50682C106.143 7.49536 105.604 7.61048 105.113 7.84308C104.664 8.06419 104.271 8.38501 103.964 8.78102C103.637 9.21102 103.398 9.70121 103.26 10.2237C102.948 11.4322 102.948 12.7004 103.26 13.9089C103.398 14.4314 103.637 14.9217 103.964 15.3517C104.271 15.7476 104.664 16.0684 105.113 16.2895C105.604 16.5221 106.143 16.6372 106.686 16.6258C107.096 16.6358 107.505 16.5678 107.891 16.425C108.467 16.2053 108.96 15.8098 109.299 15.2945C109.443 15.0722 109.566 14.8717 109.67 14.693V14.6902Z" fill="white"/>
<path d="M21.0964 8.0097C21.0422 7.81003 21.0113 7.6048 21.0043 7.39802C20.9988 7.27245 21.0229 7.14731 21.0746 7.03274C21.1262 6.91817 21.2041 6.81732 21.3018 6.73831C21.5364 6.56603 21.8236 6.48073 22.1142 6.49697C22.3685 6.47373 22.6227 6.54233 22.8308 6.6904C22.988 6.84144 23.0924 7.03923 23.1283 7.25429L24.8341 15.0779L26.5077 7.33448C26.5245 7.19431 26.5739 7.06003 26.6522 6.94254C26.7304 6.82506 26.8353 6.72768 26.9581 6.65824C27.1843 6.55068 27.4317 6.49553 27.6821 6.49697C27.9221 6.49223 28.1588 6.55342 28.3665 6.67387C28.4798 6.75526 28.5758 6.85831 28.649 6.97707C28.7222 7.09584 28.7711 7.22794 28.7929 7.36574L30.4988 15.077L32.2368 7.20447C32.2699 6.99062 32.3841 6.7978 32.5556 6.66589C32.7271 6.53397 32.9428 6.47316 33.1579 6.49607C33.3003 6.48634 33.4432 6.50475 33.5785 6.55027C33.7138 6.5958 33.8388 6.66752 33.9464 6.76137C34.0354 6.84475 34.106 6.94592 34.1536 7.05827C34.2012 7.17062 34.2247 7.29165 34.2227 7.41365C34.2197 7.62623 34.1887 7.8375 34.1306 8.04198L31.7358 17.1057C31.7046 17.2345 31.6469 17.3553 31.5665 17.4606C31.4861 17.5659 31.3847 17.6533 31.2688 17.7174C31.0295 17.8386 30.7642 17.8994 30.496 17.8943C30.1873 17.9123 29.8808 17.8333 29.6191 17.6686C29.4104 17.519 29.2688 17.2933 29.2249 17.0402L27.6314 9.97297L26.0223 17.089C26.0028 17.2201 25.9534 17.3449 25.8781 17.4539C25.8027 17.5628 25.7033 17.6529 25.5876 17.7174C25.3431 17.8397 25.0724 17.9005 24.7991 17.8943C24.494 17.9145 24.1909 17.8321 23.9379 17.6602C23.7354 17.4988 23.5911 17.2756 23.5271 17.0246L21.0964 8.0097ZM37.7679 12.888L34.7578 8.12307C34.6177 7.91888 34.5394 7.67871 34.5321 7.4312C34.5252 7.30117 34.5467 7.1712 34.5953 7.0504C34.6439 6.9296 34.7183 6.82085 34.8134 6.7319C34.9085 6.64295 35.0219 6.57597 35.1456 6.53554C35.2693 6.49511 35.4004 6.48221 35.5297 6.49787C35.7581 6.48175 35.9845 6.55073 36.1652 6.69142C36.3123 6.8227 36.4398 6.97432 36.5438 7.14183L38.8465 10.9892L41.0994 7.304C41.218 7.1033 41.3555 6.91454 41.5103 6.74022C41.5924 6.65641 41.6918 6.59138 41.8015 6.54971C41.9112 6.50804 42.0287 6.49064 42.1458 6.49877C42.4032 6.49182 42.6554 6.57128 42.8624 6.72448C42.9582 6.79439 43.0353 6.88674 43.0872 6.99338C43.1391 7.10002 43.164 7.21776 43.1599 7.33628C43.1567 7.45374 43.1378 7.57022 43.1037 7.68266C43.0713 7.80548 43.0197 7.92237 42.9508 8.02905L39.7961 12.8908V16.9638C39.7999 17.1996 39.7232 17.4297 39.5787 17.616C39.4792 17.72 39.357 17.7996 39.2217 17.8485C39.0864 17.8974 38.9416 17.9144 38.7986 17.898C38.1121 17.898 37.7688 17.587 37.7688 16.9648L37.7679 12.888ZM44.2707 7.54445C44.2575 7.39781 44.2773 7.25007 44.3288 7.11214C44.3803 6.9742 44.4621 6.8496 44.5682 6.74753C44.7795 6.57662 45.0455 6.48795 45.3171 6.49787C45.5237 6.49584 45.7278 6.54262 45.913 6.63428C46.1453 6.77697 46.3344 6.98009 46.4601 7.22201L50.5488 14.2893V7.4312C50.5347 7.29887 50.5505 7.16507 50.5952 7.03971C50.6398 6.91435 50.7121 6.80064 50.8067 6.70705C51.0166 6.55579 51.2724 6.48185 51.5307 6.49787C51.7885 6.48516 52.0432 6.5588 52.2546 6.70705C52.3543 6.79758 52.4312 6.91031 52.4792 7.03611C52.5272 7.16192 52.5449 7.29727 52.5309 7.4312V16.8652C52.5306 16.9866 52.5199 17.1077 52.4987 17.2273C52.4794 17.3451 52.4354 17.4575 52.3697 17.5571C52.2958 17.6616 52.1958 17.7448 52.0796 17.7985C51.9117 17.869 51.73 17.9004 51.5481 17.8906C51.3216 17.8875 51.1002 17.8231 50.9075 17.704C50.7148 17.5849 50.558 17.4157 50.4539 17.2144L46.2695 10.4208V16.9408C46.2729 17.1752 46.2055 17.4051 46.076 17.6004C45.9814 17.7091 45.8612 17.7926 45.7263 17.8432C45.5914 17.8939 45.446 17.9101 45.3032 17.8906C45.0215 17.9162 44.7403 17.8357 44.5148 17.6649C44.4267 17.5674 44.3598 17.4528 44.3183 17.3281C44.2768 17.2035 44.2615 17.0717 44.2735 16.9408L44.2707 7.54445ZM54.62 7.39982C54.6075 7.2703 54.6267 7.13974 54.6758 7.01924C54.7249 6.89875 54.8024 6.79192 54.9018 6.70795C55.1221 6.55876 55.3849 6.4853 55.6506 6.49877C55.9059 6.48826 56.1576 6.56177 56.3672 6.70795C56.4666 6.79192 56.5442 6.89875 56.5932 7.01924C56.6423 7.13974 56.6615 7.2703 56.6491 7.39982V11.3116L60.2864 7.07368C60.4111 6.92752 60.5486 6.79277 60.6972 6.67106C60.8451 6.55195 61.0305 6.48925 61.2204 6.49416C61.3504 6.49012 61.4797 6.51507 61.599 6.56703C61.7072 6.61948 61.8074 6.68701 61.8965 6.76778C61.9897 6.86004 62.0682 6.96604 62.1295 7.082C62.1919 7.20395 62.2235 7.33931 62.2216 7.47629C62.219 7.6101 62.1876 7.74184 62.1295 7.86238C62.0638 8.00353 61.9769 8.13368 61.8716 8.24835L59.3128 11.1964L62.5643 16.4119C62.6603 16.5606 62.7106 16.7342 62.7088 16.9112C62.7105 17.0391 62.6869 17.166 62.6395 17.2847C62.5921 17.4035 62.5218 17.5117 62.4325 17.6032C62.3288 17.7042 62.205 17.7821 62.0691 17.8321C61.9333 17.8821 61.7885 17.903 61.6441 17.8934C61.4415 17.9008 61.2424 17.8383 61.0804 17.7165C60.9168 17.5826 60.7802 17.4188 60.6779 17.2338L57.829 12.6614L56.6537 14.0139V16.9435C56.6569 17.1802 56.5835 17.4116 56.4446 17.6032C56.3459 17.711 56.2228 17.7936 56.0856 17.8441C55.9484 17.8946 55.8012 17.9115 55.6562 17.8934C55.3744 17.919 55.0932 17.8385 54.8677 17.6677C54.7796 17.5702 54.7127 17.4555 54.6712 17.3308C54.6297 17.2062 54.6144 17.0744 54.6264 16.9435L54.62 7.39982Z" fill="white"/>
<path d="M15.7513 6.02161L15.6408 7.0304C16.9387 8.21829 17.7804 9.82292 18.0201 11.5662C18.2597 13.3096 17.8821 15.0818 16.9528 16.576C16.0235 18.0702 14.6009 19.1921 12.9315 19.7476C11.2622 20.303 9.45113 20.2569 7.81216 19.6172C6.17319 18.9776 4.80953 17.7847 3.95738 16.2451C3.10524 14.7056 2.81829 12.9165 3.14624 11.1876C3.4742 9.4587 4.39639 7.89903 5.75309 6.7787C7.10979 5.65838 8.81553 5.04802 10.5748 5.0533C11.3523 5.05323 12.1249 5.17506 12.8646 5.41442L12.9567 4.58523C12.172 4.35362 11.358 4.2364 10.5398 4.23705C9.43637 4.23147 8.34263 4.44365 7.32125 4.86144C6.29987 5.27923 5.3709 5.89437 4.58755 6.67175C3.80419 7.44913 3.18183 8.37349 2.75609 9.39178C2.33034 10.4101 2.10958 11.5023 2.10645 12.6061C2.15033 14.8318 3.0586 16.9531 4.6389 18.5207C6.21921 20.0883 8.34747 20.9792 10.573 21.0046C12.797 20.993 14.9267 20.1046 16.5 18.5323C18.0734 16.96 18.9634 14.8306 18.9769 12.6061C18.978 11.3353 18.688 10.0811 18.1292 8.9399C17.5704 7.79866 16.7576 6.80068 15.7531 6.0225" fill="white"/>
<path d="M15.4326 8.90518L15.2484 10.5396C15.5599 11.2027 15.7221 11.926 15.7237 12.6586C15.703 14.0245 15.151 15.3284 14.1849 16.2939C13.2188 17.2593 11.9146 17.8103 10.5491 17.8298C9.179 17.8249 7.86632 17.2787 6.89707 16.3101C5.92782 15.3415 5.38054 14.029 5.37447 12.6586C5.39518 11.2928 5.94716 9.98874 6.91326 9.02327C7.87937 8.0578 9.18357 7.50686 10.5491 7.48736C11.2471 7.48777 11.9373 7.63394 12.5755 7.91663L12.6952 6.85993C12.0115 6.59559 11.2849 6.45979 10.5519 6.45923C9.33632 6.46615 8.15007 6.83315 7.14291 7.5139C6.13575 8.19466 5.35284 9.15859 4.89301 10.2841C4.43318 11.4096 4.31705 12.6461 4.5593 13.8376C4.80154 15.029 5.39129 16.122 6.25409 16.9784C7.11689 17.8349 8.21405 18.4164 9.40704 18.6496C10.6 18.8828 11.8354 18.7572 12.957 18.2887C14.0787 17.8202 15.0365 17.0299 15.7094 16.0173C16.3823 15.0048 16.7402 13.8154 16.7378 12.5996C16.725 11.257 16.2658 9.95695 15.4326 8.90428" fill="white"/>
<path d="M0.762655 12.3187C0.754301 9.73577 1.76929 7.25474 3.58547 5.41862C5.40165 3.5825 7.87109 2.54082 10.4533 2.52158H10.5454V1.84253H10.4533C7.67907 1.8479 5.02027 2.95399 3.06047 4.91805C1.10068 6.88211 -5.19235e-06 9.54375 0 12.3187H0.762655Z" fill="white"/>
<path d="M14.2951 0L13.0977 10.6612C12.627 10.3076 12.08 10.0689 11.5006 9.96431C10.9212 9.8597 10.3254 9.89206 9.76067 10.0588C9.22367 10.1584 8.73553 10.435 8.37422 10.8447C8.01291 11.2543 7.79928 11.7734 7.76746 12.3187C7.82161 13.0139 8.12495 13.666 8.62168 14.1552C9.1184 14.6445 9.77506 14.9378 10.4708 14.9812C13.153 15.3386 13.8549 13.6914 13.9636 13.122C14.1063 12.5693 14.7686 6.42151 14.7686 6.42151L15.1259 3.05325C16.1211 3.0023 17.1041 3.29068 17.914 3.87131C18.2102 4.19489 18.4056 4.59792 18.4763 5.03091C18.547 5.4639 18.4899 5.90804 18.312 6.30905C18.1812 6.69139 17.8744 7.05717 18.2594 6.93648C18.8142 6.57931 19.2083 6.02025 19.3583 5.37763C19.4011 4.87869 19.3132 4.3772 19.1032 3.92259C18.8933 3.46798 18.5685 3.07596 18.1609 2.78514C17.9822 2.60641 16.4587 1.69888 16.2027 1.44368C15.8448 1.13061 15.6182 0.694004 15.5681 0.221102L14.2951 0Z" fill="white"/>
</g>
<defs>
<clipPath id="clip0_2175_3483">
<rect width="111" height="21" fill="white"/>
</clipPath>
</defs>
</svg>
